<svg width="171" height="98" viewBox="0 0 171 98" fill="none" xmlns="http://www.w3.org/2000/svg">
<path d="M10.3068 41L14.1705 17.7273H23.7841C25.5265 17.7273 26.9773 18.0644 28.1364 18.7386C29.2955 19.4129 30.1174 20.3561 30.6023 21.5682C31.0871 22.7803 31.197 24.1856 30.9318 25.7841C30.6742 27.3977 30.0947 28.803 29.1932 30C28.2992 31.197 27.1477 32.125 25.7386 32.7841C24.3295 33.4432 22.7273 33.7727 20.9318 33.7727H15.0114L15.75 29.3409H20.6364C21.4924 29.3409 22.2311 29.1932 22.8523 28.8977C23.4811 28.6023 23.9848 28.1894 24.3636 27.6591C24.7424 27.1288 24.9924 26.5038 25.1136 25.7841C25.2273 25.0644 25.1818 24.4432 24.9773 23.9205C24.7727 23.3902 24.4053 22.9811 23.875 22.6932C23.3523 22.4053 22.6705 22.2614 21.8295 22.2614H19.0568L15.9318 41H10.3068ZM54.9915 29.7273C54.5672 32.2348 53.7339 34.3523 52.4915 36.0795C51.2566 37.7992 49.7528 39.1023 47.9801 39.9886C46.215 40.875 44.3172 41.3182 42.2869 41.3182C40.143 41.3182 38.2869 40.8409 36.7188 39.8864C35.1506 38.9318 34.0104 37.5417 33.2983 35.7159C32.5938 33.8902 32.4574 31.6742 32.8892 29.0682C33.2983 26.5606 34.1203 24.4394 35.3551 22.7045C36.5975 20.9697 38.1089 19.6553 39.8892 18.7614C41.6771 17.8598 43.5938 17.4091 45.6392 17.4091C47.768 17.4091 49.6127 17.8902 51.1733 18.8523C52.7415 19.8144 53.8778 21.2121 54.5824 23.0455C55.2869 24.8788 55.4233 27.1061 54.9915 29.7273ZM49.3665 29.0682C49.6013 27.6061 49.6013 26.375 49.3665 25.375C49.1392 24.375 48.6922 23.6212 48.0256 23.1136C47.3589 22.5985 46.4915 22.3409 45.4233 22.3409C44.2415 22.3409 43.1733 22.6326 42.2188 23.2159C41.2718 23.7917 40.4801 24.6326 39.8438 25.7386C39.2074 26.8371 38.7642 28.1667 38.5142 29.7273C38.2566 31.2045 38.2491 32.4356 38.4915 33.4205C38.7415 34.4053 39.2074 35.1477 39.8892 35.6477C40.571 36.1402 41.4384 36.3864 42.4915 36.3864C43.6657 36.3864 44.7225 36.1023 45.6619 35.5341C46.6013 34.9659 47.3854 34.1364 48.0142 33.0455C48.6506 31.9545 49.1013 30.6288 49.3665 29.0682ZM56.4006 41L60.2642 17.7273H69.8778C71.6203 17.7273 73.071 18.0644 74.2301 18.7386C75.3892 19.4129 76.2112 20.3561 76.696 21.5682C77.1809 22.7803 77.2907 24.1856 77.0256 25.7841C76.768 27.3977 76.1884 28.803 75.2869 30C74.393 31.197 73.2415 32.125 71.8324 32.7841C70.4233 33.4432 68.821 33.7727 67.0256 33.7727H61.1051L61.8438 29.3409H66.7301C67.5862 29.3409 68.3248 29.1932 68.946 28.8977C69.5748 28.6023 70.0786 28.1894 70.4574 27.6591C70.8362 27.1288 71.0862 26.5038 71.2074 25.7841C71.321 25.0644 71.2756 24.4432 71.071 23.9205C70.8665 23.3902 70.4991 22.9811 69.9688 22.6932C69.446 22.4053 68.7642 22.2614 67.9233 22.2614H65.1506L62.0256 41H56.4006ZM95.1875 17.7273H100.801L98.3125 32.7386C98.0246 34.4735 97.3617 35.9848 96.3239 37.2727C95.2936 38.553 93.9792 39.5455 92.3807 40.25C90.7822 40.947 89.0019 41.2955 87.0398 41.2955C85.0701 41.2955 83.4072 40.947 82.0511 40.25C80.6951 39.5455 79.714 38.553 79.108 37.2727C78.5019 35.9848 78.339 34.4735 78.6193 32.7386L81.108 17.7273H86.733L84.3125 32.25C84.1837 33.053 84.2443 33.7689 84.4943 34.3977C84.7519 35.0189 85.1686 35.5114 85.7443 35.875C86.3201 36.2311 87.0246 36.4091 87.858 36.4091C88.6989 36.4091 89.4678 36.2311 90.1648 35.875C90.8617 35.5114 91.4375 35.0189 91.892 34.3977C92.3466 33.7689 92.6383 33.053 92.767 32.25L95.1875 17.7273ZM100.463 41L104.327 17.7273H113.94C115.683 17.7273 117.134 18.0644 118.293 18.7386C119.452 19.4129 120.274 20.3561 120.759 21.5682C121.243 22.7803 121.353 24.1856 121.088 25.7841C120.83 27.3977 120.251 28.803 119.349 30C118.455 31.197 117.304 32.125 115.895 32.7841C114.486 33.4432 112.884 33.7727 111.088 33.7727H105.168L105.906 29.3409H110.793C111.649 29.3409 112.387 29.1932 113.009 28.8977C113.637 28.6023 114.141 28.1894 114.52 27.6591C114.899 27.1288 115.149 26.5038 115.27 25.7841C115.384 25.0644 115.338 24.4432 115.134 23.9205C114.929 23.3902 114.562 22.9811 114.031 22.6932C113.509 22.4053 112.827 22.2614 111.986 22.2614H109.213L106.088 41H100.463ZM19.0341 80H10.3068L14.1705 56.7273H22.6364C25 56.7273 26.9697 57.2083 28.5455 58.1705C30.1288 59.125 31.2462 60.4962 31.8977 62.2841C32.5568 64.0644 32.6818 66.1856 32.2727 68.6477C31.8788 71.0265 31.0871 73.0644 29.8977 74.7614C28.7159 76.4583 27.2008 77.7576 25.3523 78.6591C23.5038 79.553 21.3977 80 19.0341 80ZM16.7159 75.2045H19.3864C20.6894 75.2045 21.8409 74.9697 22.8409 74.5C23.8485 74.0227 24.6818 73.2614 25.3409 72.2159C26 71.1629 26.4697 69.7803 26.75 68.0682C27.0227 66.4318 27.0114 65.1402 26.7159 64.1932C26.428 63.2386 25.8674 62.5568 25.0341 62.1477C24.2083 61.7311 23.1288 61.5227 21.7955 61.5227H19L16.7159 75.2045ZM37.3409 80H31.2955L43.0114 56.7273H50.5L54.4886 80H48.4432L45.8864 62.5909H45.7045L37.3409 80ZM38.0682 70.8409H50.7045L49.9773 75.1136H37.3409L38.0682 70.8409ZM57.3239 56.7273H63.608L66.9034 66.4659H67.142L73.6534 56.7273H79.9375L68.858 72.2273L67.5625 80H61.9716L63.2784 72.2273L57.3239 56.7273Z" fill="#8B8BDA"/>
</svg>
