<svg width="10" height="10" viewBox="0 0 10 10" fill="none" xmlns="http://www.w3.org/2000/svg">
<path d="M9 0.84375H7.03125V0.09375C7.03125 0.0421875 6.98906 0 6.9375 0H6.28125C6.22969 0 6.1875 0.0421875 6.1875 0.09375V0.84375H3.1875V0.09375C3.1875 0.0421875 3.14531 0 3.09375 0H2.4375C2.38594 0 2.34375 0.0421875 2.34375 0.09375V0.84375H0.375C0.167578 0.84375 0 1.01133 0 1.21875V9C0 9.20742 0.167578 9.375 0.375 9.375H9C9.20742 9.375 9.375 9.20742 9.375 9V1.21875C9.375 1.01133 9.20742 0.84375 9 0.84375ZM8.53125 8.53125H0.84375V4.07812H8.53125V8.53125ZM8.53125 3.28125H0.84375V1.6875H2.34375V2.25C2.34375 2.30156 2.38594 2.34375 2.4375 2.34375H3.09375C3.14531 2.34375 3.1875 2.30156 3.1875 2.25V1.6875H6.1875V2.25C6.1875 2.30156 6.22969 2.34375 6.28125 2.34375H6.9375C6.98906 2.34375 7.03125 2.30156 7.03125 2.25V1.6875H8.53125V3.28125Z" fill="black"/>
</svg>
