<svg width="16" height="10" viewBox="0 0 16 10" fill="none" xmlns="http://www.w3.org/2000/svg">
<path d="M15.894 4.60429C14.1545 1.54141 11.525 0 8 0C4.47319 0 1.84551 1.54141 0.105961 4.60583C0.0361868 4.72932 0 4.8642 0 5.00077C0 5.13734 0.0361868 5.27221 0.105961 5.39571C1.84551 8.45859 4.47502 10 8 10C11.5268 10 14.1545 8.45859 15.894 5.39417C16.0353 5.14571 16.0353 4.85736 15.894 4.60429ZM8 8.89571C5.04019 8.89571 2.87309 7.6411 1.34456 5C2.87309 2.3589 5.04019 1.10429 8 1.10429C10.9598 1.10429 13.1269 2.3589 14.6554 5C13.1287 7.6411 10.9616 8.89571 8 8.89571ZM7.9266 2.30061C6.14301 2.30061 4.69705 3.5092 4.69705 5C4.69705 6.4908 6.14301 7.69939 7.9266 7.69939C9.71019 7.69939 11.1561 6.4908 11.1561 5C11.1561 3.5092 9.71019 2.30061 7.9266 2.30061ZM7.9266 6.71779C6.79075 6.71779 5.87143 5.94939 5.87143 5C5.87143 4.05061 6.79075 3.28221 7.9266 3.28221C9.06244 3.28221 9.98176 4.05061 9.98176 5C9.98176 5.94939 9.06244 6.71779 7.9266 6.71779Z" fill="black"/>
</svg>
