<svg width="9" height="11" viewBox="0 0 9 11" fill="none" xmlns="http://www.w3.org/2000/svg">
<path d="M4.35938 3.04688C4.00898 3.04688 3.67969 3.18281 3.43125 3.43125C3.30917 3.55298 3.21236 3.69765 3.14639 3.85693C3.08043 4.01622 3.04661 4.18697 3.04688 4.35938C3.04688 4.70977 3.18398 5.03906 3.43125 5.2875C3.55298 5.40958 3.69765 5.50639 3.85693 5.57236C4.01622 5.63832 4.18697 5.67214 4.35938 5.67188C4.70977 5.67188 5.03906 5.53477 5.2875 5.2875C5.53594 5.03906 5.67188 4.70977 5.67188 4.35938C5.67188 4.00898 5.53594 3.67969 5.2875 3.43125C5.03906 3.18281 4.70977 3.04688 4.35938 3.04688ZM8.37422 2.60273C8.15359 2.094 7.8355 1.63339 7.43789 1.24687C7.03898 0.856868 6.5687 0.547326 6.05273 0.335156C5.51602 0.1125 4.94648 0 4.35938 0C3.77227 0 3.20273 0.1125 2.66602 0.333984C2.14687 0.548437 1.68164 0.855469 1.28086 1.2457C0.883503 1.63243 0.565448 2.09299 0.344531 2.60156C0.116016 3.12891 0 3.68906 0 4.26562C0 5.09297 0.198047 5.9168 0.587109 6.71133C0.9 7.35 1.33711 7.97227 1.88789 8.56406C2.82891 9.57422 3.81562 10.1918 4.0957 10.357C4.1752 10.404 4.26587 10.4287 4.3582 10.4285C4.44961 10.4285 4.53984 10.4051 4.6207 10.357C4.90078 10.1918 5.8875 9.57422 6.82852 8.56406C7.3793 7.97344 7.81641 7.35 8.1293 6.71133C8.5207 5.91797 8.71875 5.09531 8.71875 4.2668C8.71875 3.69023 8.60273 3.13008 8.37422 2.60273ZM4.35938 6.42188C3.22031 6.42188 2.29688 5.49844 2.29688 4.35938C2.29688 3.22031 3.22031 2.29688 4.35938 2.29688C5.49844 2.29688 6.42188 3.22031 6.42188 4.35938C6.42188 5.49844 5.49844 6.42188 4.35938 6.42188Z" fill="black"/>
</svg>
