<svg width="33" height="28" viewBox="0 0 33 28" fill="none" xmlns="http://www.w3.org/2000/svg">
<path d="M23.7057 16.0032C23.7057 16.3865 23.858 16.7541 24.129 17.0252C24.4001 17.2962 24.7677 17.4485 25.151 17.4485C25.5343 17.4485 25.9019 17.2962 26.173 17.0252C26.444 16.7541 26.5963 16.3865 26.5963 16.0032C26.5963 15.6199 26.444 15.2522 26.173 14.9812C25.9019 14.7101 25.5343 14.5579 25.151 14.5579C24.7677 14.5579 24.4001 14.7101 24.129 14.9812C23.858 15.2522 23.7057 15.6199 23.7057 16.0032Z" fill="black"/>
<path d="M32.3414 9.94736L31.4851 8.45147C31.4466 8.38552 31.3835 8.33749 31.3097 8.31786C31.236 8.29822 31.1574 8.30859 31.0912 8.34668L29.2593 9.41621L26.4301 1.6043C26.2807 1.13816 25.9871 0.731561 25.5915 0.443198C25.196 0.154835 24.7191 -0.000367361 24.2296 6.52963e-07H8.57325C7.31944 6.52963e-07 6.20655 0.809376 5.81993 2.00537L3.12442 9.41983L1.28887 8.3503C1.2227 8.3122 1.14413 8.30184 1.07034 8.32147C0.996551 8.3411 0.933525 8.38914 0.895027 8.45508L0.0386797 9.94736C-0.0408125 10.0847 0.00616023 10.2581 0.143465 10.3376L2.32589 11.6095L1.80196 13.0548C1.7586 13.1704 1.73692 13.2933 1.73692 13.4161V25.9976C1.73692 26.5648 2.16329 27.0237 2.68722 27.0237H5.12979C5.57423 27.0237 5.96085 26.6877 6.05479 26.218L6.33302 24.8558H26.0471L26.3253 26.218C26.4229 26.6877 26.8059 27.0237 27.2503 27.0237H29.6929C30.2168 27.0237 30.6432 26.5648 30.6432 25.9976V13.4161C30.6432 13.2933 30.6215 13.1704 30.5781 13.0548L30.0542 11.6095L32.233 10.3376C32.2986 10.2997 32.3467 10.2376 32.367 10.1646C32.3873 10.0917 32.3781 10.0136 32.3414 9.94736ZM8.26612 2.89063L8.28419 2.84365L8.29864 2.79668C8.33839 2.67744 8.44678 2.59795 8.57325 2.59795H24.0236L26.7481 10.1136H5.63927L8.26612 2.89063ZM28.0416 22.2542H4.33848V13.6907L4.90216 12.137H27.4779L28.0416 13.6907V22.2542Z" fill="black"/>
<path d="M4.90217 12.137L4.3385 13.6907V22.2542H28.0416V13.6907L27.478 12.137H4.90217ZM7.22913 17.4485C6.43059 17.4485 5.78381 16.8017 5.78381 16.0032C5.78381 15.2046 6.43059 14.5579 7.22913 14.5579C8.02766 14.5579 8.67444 15.2046 8.67444 16.0032C8.67444 16.8017 8.02766 17.4485 7.22913 17.4485ZM21.2487 20.1584C21.2487 20.3174 21.1186 20.4475 20.9596 20.4475H11.4205C11.2615 20.4475 11.1315 20.3174 11.1315 20.1584V17.1233C11.1315 16.9643 11.2615 16.8342 11.4205 16.8342H12.8658C13.0248 16.8342 13.1549 16.9643 13.1549 17.1233V18.4241H19.2252V17.1233C19.2252 16.9643 19.3553 16.8342 19.5143 16.8342H20.9596C21.1186 16.8342 21.2487 16.9643 21.2487 17.1233V20.1584ZM25.151 17.4485C24.3525 17.4485 23.7057 16.8017 23.7057 16.0032C23.7057 15.2046 24.3525 14.5579 25.151 14.5579C25.9495 14.5579 26.5963 15.2046 26.5963 16.0032C26.5963 16.8017 25.9495 17.4485 25.151 17.4485Z" fill="black" fill-opacity="0.15"/>
</svg>
