<svg width="94" height="13" viewBox="0 0 94 13" fill="none" xmlns="http://www.w3.org/2000/svg">
<path d="M0.153409 12L2.08523 0.363636H6.89205C7.76326 0.363636 8.48864 0.532197 9.06818 0.869318C9.64773 1.20644 10.0587 1.67803 10.3011 2.28409C10.5436 2.89015 10.5985 3.5928 10.4659 4.39205C10.3371 5.19886 10.0473 5.90152 9.59659 6.5C9.14962 7.09848 8.57386 7.5625 7.86932 7.89205C7.16477 8.22159 6.36364 8.38636 5.46591 8.38636H2.50568L2.875 6.17045H5.31818C5.74621 6.17045 6.11553 6.09659 6.42614 5.94886C6.74053 5.80114 6.99242 5.5947 7.18182 5.32955C7.37121 5.06439 7.49621 4.75189 7.55682 4.39205C7.61364 4.0322 7.59091 3.72159 7.48864 3.46023C7.38636 3.19508 7.20265 2.99053 6.9375 2.84659C6.67614 2.70265 6.33523 2.63068 5.91477 2.63068H4.52841L2.96591 12H0.153409ZM22.4957 6.36364C22.2836 7.61742 21.867 8.67614 21.2457 9.53977C20.6283 10.3996 19.8764 11.0511 18.9901 11.4943C18.1075 11.9375 17.1586 12.1591 16.1435 12.1591C15.0715 12.1591 14.1435 11.9205 13.3594 11.4432C12.5753 10.9659 12.0052 10.2708 11.6491 9.35795C11.2969 8.44508 11.2287 7.33712 11.4446 6.03409C11.6491 4.7803 12.0601 3.7197 12.6776 2.85227C13.2988 1.98485 14.0545 1.32765 14.9446 0.880681C15.8385 0.429924 16.7969 0.204545 17.8196 0.204545C18.884 0.204545 19.8063 0.445075 20.5866 0.926136C21.3707 1.4072 21.9389 2.10606 22.2912 3.02273C22.6435 3.93939 22.7116 5.05303 22.4957 6.36364ZM19.6832 6.03409C19.8007 5.30303 19.8007 4.6875 19.6832 4.1875C19.5696 3.6875 19.3461 3.31061 19.0128 3.05682C18.6795 2.79924 18.2457 2.67045 17.7116 2.67045C17.1207 2.67045 16.5866 2.81629 16.1094 3.10795C15.6359 3.39583 15.2401 3.81629 14.9219 4.36932C14.6037 4.91856 14.3821 5.58333 14.2571 6.36364C14.1283 7.10227 14.1245 7.7178 14.2457 8.21023C14.3707 8.70265 14.6037 9.07386 14.9446 9.32386C15.2855 9.57008 15.7192 9.69318 16.2457 9.69318C16.8329 9.69318 17.3613 9.55114 17.831 9.26705C18.3007 8.98295 18.6927 8.56818 19.0071 8.02273C19.3253 7.47727 19.5507 6.81439 19.6832 6.03409ZM23.2003 12L25.1321 0.363636H29.9389C30.8101 0.363636 31.5355 0.532197 32.1151 0.869318C32.6946 1.20644 33.1056 1.67803 33.348 2.28409C33.5904 2.89015 33.6454 3.5928 33.5128 4.39205C33.384 5.19886 33.0942 5.90152 32.6435 6.5C32.1965 7.09848 31.6207 7.5625 30.9162 7.89205C30.2116 8.22159 29.4105 8.38636 28.5128 8.38636H25.5526L25.9219 6.17045H28.3651C28.7931 6.17045 29.1624 6.09659 29.473 5.94886C29.7874 5.80114 30.0393 5.5947 30.2287 5.32955C30.4181 5.06439 30.5431 4.75189 30.6037 4.39205C30.6605 4.0322 30.6378 3.72159 30.5355 3.46023C30.4332 3.19508 30.2495 2.99053 29.9844 2.84659C29.723 2.70265 29.3821 2.63068 28.9616 2.63068H27.5753L26.0128 12H23.2003ZM42.5938 0.363636H45.4006L44.1562 7.86932C44.0123 8.73674 43.6809 9.49242 43.1619 10.1364C42.6468 10.7765 41.9896 11.2727 41.1903 11.625C40.3911 11.9735 39.5009 12.1477 38.5199 12.1477C37.535 12.1477 36.7036 11.9735 36.0256 11.625C35.3475 11.2727 34.857 10.7765 34.554 10.1364C34.2509 9.49242 34.1695 8.73674 34.3097 7.86932L35.554 0.363636H38.3665L37.1562 7.625C37.0919 8.02652 37.1222 8.38447 37.2472 8.69886C37.3759 9.00947 37.5843 9.25568 37.8722 9.4375C38.16 9.61553 38.5123 9.70455 38.929 9.70455C39.3494 9.70455 39.7339 9.61553 40.0824 9.4375C40.4309 9.25568 40.7188 9.00947 40.946 8.69886C41.1733 8.38447 41.3191 8.02652 41.3835 7.625L42.5938 0.363636ZM45.2315 12L47.1634 0.363636H51.9702C52.8414 0.363636 53.5668 0.532197 54.1463 0.869318C54.7259 1.20644 55.1368 1.67803 55.3793 2.28409C55.6217 2.89015 55.6766 3.5928 55.544 4.39205C55.4152 5.19886 55.1255 5.90152 54.6747 6.5C54.2277 7.09848 53.652 7.5625 52.9474 7.89205C52.2429 8.22159 51.4418 8.38636 50.544 8.38636H47.5838L47.9531 6.17045H50.3963C50.8243 6.17045 51.1937 6.09659 51.5043 5.94886C51.8187 5.80114 52.0705 5.5947 52.2599 5.32955C52.4493 5.06439 52.5743 4.75189 52.6349 4.39205C52.6918 4.0322 52.669 3.72159 52.5668 3.46023C52.4645 3.19508 52.2808 2.99053 52.0156 2.84659C51.7543 2.70265 51.4134 2.63068 50.9929 2.63068H49.6065L48.044 12H45.2315ZM63.4545 12H59.0909L61.0227 0.363636H65.2557C66.4375 0.363636 67.4223 0.604166 68.2102 1.08523C69.0019 1.5625 69.5606 2.24811 69.8864 3.14205C70.2159 4.0322 70.2784 5.0928 70.0739 6.32386C69.8769 7.51326 69.4811 8.5322 68.8864 9.38068C68.2955 10.2292 67.5379 10.8788 66.6136 11.3295C65.6894 11.7765 64.6364 12 63.4545 12ZM62.2955 9.60227H63.6307C64.2822 9.60227 64.858 9.48485 65.358 9.25C65.8617 9.01136 66.2784 8.63068 66.608 8.10795C66.9375 7.58144 67.1723 6.89015 67.3125 6.03409C67.4489 5.21591 67.4432 4.57008 67.2955 4.09659C67.1515 3.61932 66.8712 3.27841 66.4545 3.07386C66.0417 2.86553 65.5019 2.76136 64.8352 2.76136H63.4375L62.2955 9.60227ZM72.608 12H69.5852L75.4432 0.363636H79.1875L81.1818 12H78.1591L76.8807 3.29545H76.7898L72.608 12ZM72.9716 7.42045H79.2898L78.9261 9.55682H72.608L72.9716 7.42045ZM82.5994 0.363636H85.7415L87.3892 5.23295H87.5085L90.7642 0.363636H93.9062L88.3665 8.11364L87.7188 12H84.9233L85.5767 8.11364L82.5994 0.363636Z" fill="#FEFEDF"/>
</svg>
