<svg width="12" height="12" viewBox="0 0 12 12" fill="none" xmlns="http://www.w3.org/2000/svg">
<path d="M11.8776 5.81834L0.320091 0.023039C0.273115 -0.000451776 0.219231 -0.00597896 0.16811 0.00645731C0.0506694 0.0354753 -0.0225581 0.154311 0.00645653 0.273146L1.19744 5.13987C1.2154 5.21311 1.26928 5.27253 1.34113 5.29602L3.38182 5.99659L1.34251 6.69717C1.27067 6.72204 1.21678 6.78008 1.2002 6.85331L0.00645653 11.727C-0.0059783 11.7781 -0.000451648 11.832 0.0230364 11.8776C0.0769207 11.9867 0.209559 12.0309 0.320091 11.9771L11.8776 6.21492C11.9204 6.19419 11.955 6.15827 11.9771 6.11681C12.0309 6.00627 11.9867 5.87361 11.8776 5.81834ZM1.36876 10.3424L2.06373 7.50138L6.14236 6.10161C6.17414 6.09056 6.20039 6.06568 6.21144 6.03252C6.23078 5.97449 6.20039 5.9123 6.14236 5.89158L2.06373 4.49319L1.37153 1.66324L10.0483 6.01456L1.36876 10.3424Z" fill="black"/>
<path d="M11.8776 5.81834L0.320091 0.023039C0.273115 -0.000451776 0.219231 -0.00597896 0.16811 0.00645731C0.0506694 0.0354753 -0.0225581 0.154311 0.00645653 0.273146L1.19744 5.13987C1.2154 5.21311 1.26928 5.27253 1.34113 5.29602L3.38182 5.99659L1.34251 6.69717C1.27067 6.72204 1.21678 6.78008 1.2002 6.85331L0.00645653 11.727C-0.0059783 11.7781 -0.000451648 11.832 0.0230364 11.8776C0.0769207 11.9867 0.209559 12.0309 0.320091 11.9771L11.8776 6.21492C11.9204 6.19419 11.955 6.15827 11.9771 6.11681C12.0309 6.00627 11.9867 5.87361 11.8776 5.81834ZM1.36876 10.3424L2.06373 7.50138L6.14236 6.10161C6.17414 6.09056 6.20039 6.06568 6.21144 6.03252C6.23078 5.97449 6.20039 5.9123 6.14236 5.89158L2.06373 4.49319L1.37153 1.66324L10.0483 6.01456L1.36876 10.3424Z" fill="black"/>
</svg>
