<svg width="12" height="11" viewBox="0 0 12 11" fill="none" xmlns="http://www.w3.org/2000/svg">
<path d="M7 9C8.8855 9 9.8285 9 10.414 8.414C11 7.8285 11 6.8855 11 5C11 3.1145 11 2.1715 10.414 1.586C9.8285 1 8.8855 1 7 1H5C3.1145 1 2.1715 1 1.586 1.586C1 2.1715 1 3.1145 1 5C1 6.8855 1 7.8285 1.586 8.414C1.9125 8.741 2.35 8.8855 3 8.949" stroke="black" stroke-linecap="round" stroke-linejoin="round"/>
<path d="M6 5V5.005M4 5V5.005M8 5V5.005M7 9C6.382 9 5.701 9.25 5.0795 9.5725C4.0805 10.091 3.581 10.3505 3.335 10.185C3.089 10.02 3.1355 9.5075 3.229 8.483L3.25 8.25" stroke="black" stroke-linecap="round"/>
</svg>
