<svg width="36" height="35" viewBox="0 0 36 35" fill="none" xmlns="http://www.w3.org/2000/svg">
<path d="M32.0963 15.3125C32.3864 15.3125 32.6646 15.1973 32.8697 14.9921C33.0748 14.787 33.1901 14.5088 33.1901 14.2188V8.75C33.1901 8.16984 32.9596 7.61344 32.5494 7.2032C32.1391 6.79297 31.5827 6.5625 31.0026 6.5625H4.75256C4.1724 6.5625 3.616 6.79297 3.20577 7.2032C2.79553 7.61344 2.56506 8.16984 2.56506 8.75V14.2188C2.56506 14.5088 2.6803 14.787 2.88542 14.9921C3.09053 15.1973 3.36873 15.3125 3.65881 15.3125C4.23897 15.3125 4.79537 15.543 5.20561 15.9532C5.61585 16.3634 5.84631 16.9198 5.84631 17.5C5.84631 18.0802 5.61585 18.6366 5.20561 19.0468C4.79537 19.457 4.23897 19.6875 3.65881 19.6875C3.36873 19.6875 3.09053 19.8027 2.88542 20.0079C2.6803 20.213 2.56506 20.4912 2.56506 20.7812V26.25C2.56506 26.8302 2.79553 27.3866 3.20577 27.7968C3.616 28.207 4.1724 28.4375 4.75256 28.4375H31.0026C31.5827 28.4375 32.1391 28.207 32.5494 27.7968C32.9596 27.3866 33.1901 26.8302 33.1901 26.25V20.7812C33.1901 20.4912 33.0748 20.213 32.8697 20.0079C32.6646 19.8027 32.3864 19.6875 32.0963 19.6875C31.5162 19.6875 30.9598 19.457 30.5495 19.0468C30.1393 18.6366 29.9088 18.0802 29.9088 17.5C29.9088 16.9198 30.1393 16.3634 30.5495 15.9532C30.9598 15.543 31.5162 15.3125 32.0963 15.3125ZM31.0026 21.7328V26.25H23.3463V22.9688H21.1588V26.25H4.75256V21.7328C5.68881 21.4881 6.51751 20.9399 7.10896 20.174C7.70042 19.4081 8.02125 18.4677 8.02125 17.5C8.02125 16.5323 7.70042 15.5919 7.10896 14.826C6.51751 14.0601 5.68881 13.5119 4.75256 13.2672V8.75H21.1588V12.0312H23.3463V8.75H31.0026V13.2672C30.0663 13.5119 29.2376 14.0601 28.6462 14.826C28.0547 15.5919 27.7339 16.5323 27.7339 17.5C27.7339 18.4677 28.0547 19.4081 28.6462 20.174C29.2376 20.9399 30.0663 21.4881 31.0026 21.7328Z" fill="black"/>
<path d="M21.1588 14.2188H23.3463V20.7812H21.1588V14.2188Z" fill="black"/>
</svg>
